<svg width="27" height="20" viewBox="0 0 27 20" fill="none" xmlns="http://www.w3.org/2000/svg">
<path d="M12.0376 19C12.0376 15.1111 15.1487 12 19.0376 12C22.9265 12 26.0376 15.1111 26.0376 19" fill="#4E7CFF"/>
<path d="M12.0376 19C12.0376 15.1111 15.1487 12 19.0376 12C22.9265 12 26.0376 15.1111 26.0376 19H12.0376Z" stroke="#4E7CFF" stroke-width="1.5" stroke-miterlimit="10" stroke-linecap="round" stroke-linejoin="round"/>
<path d="M19.1488 9.66665C21.542 9.66665 23.4821 7.72655 23.4821 5.33332C23.4821 2.9401 21.542 1 19.1488 1C16.7555 1 14.8154 2.9401 14.8154 5.33332C14.8154 7.72655 16.7555 9.66665 19.1488 9.66665Z" fill="#4E7CFF" stroke="#4E7CFF" stroke-width="1.5" stroke-miterlimit="10" stroke-linecap="round" stroke-linejoin="round"/>
<path d="M1 19C1 15.1111 4.1111 12 7.99999 12C11.8889 12 15 15.1111 15 19" fill="#4E7CFF"/>
<path d="M1 19C1 15.1111 4.1111 12 7.99999 12C11.8889 12 15 15.1111 15 19H1Z" stroke="#4E7CFF" stroke-width="1.5" stroke-miterlimit="10" stroke-linecap="round" stroke-linejoin="round"/>
<path d="M8.11116 9.66665C10.5044 9.66665 12.4445 7.72655 12.4445 5.33332C12.4445 2.9401 10.5044 1 8.11116 1C5.71793 1 3.77783 2.9401 3.77783 5.33332C3.77783 7.72655 5.71793 9.66665 8.11116 9.66665Z" fill="#4E7CFF" stroke="#4E7CFF" stroke-width="1.5" stroke-miterlimit="10" stroke-linecap="round" stroke-linejoin="round"/>
</svg>
