<svg width="14" height="18" viewBox="0 0 14 18" fill="none" xmlns="http://www.w3.org/2000/svg">
<path d="M0 11.2886H1.93762V12.8571H0V14.9143H1.93762V18H4.47563V14.9143H13.0448V12.8571H4.47563V11.2886H6.63158C9.36062 11.2886 10.9981 10.6714 12.308 9.43714C13.3723 8.43429 14 6.99429 14 5.42571C14 3.44571 13.1267 2.05714 11.7076 1.13143C10.5068 0.334286 9.00585 0 6.74074 0H1.93762V9.23143H0V11.2886ZM11.3528 5.50286C11.3528 6.63429 11.0253 7.45714 10.2612 8.17714C9.41521 9 8.26901 9.25714 6.19493 9.25714H4.47563V2.05714H6.577C8.18713 2.05714 9.16959 2.23714 9.9883 2.75143C10.9162 3.31714 11.3528 4.26857 11.3528 5.50286Z" fill="#F2B04E"/>
</svg>
