<svg width="16" height="16" viewBox="0 0 16 16" fill="none" xmlns="http://www.w3.org/2000/svg">
<path d="M14.9373 0H0.67165C0.419232 0 0.187171 0.138422 0.0731762 0.362341C-0.0408187 0.590331 -0.0204624 0.863104 0.126102 1.07074L5.35358 8.43155C5.35358 8.43562 5.35766 8.43562 5.35766 8.43969C5.549 8.69618 5.65078 9.0056 5.65078 9.32723V15.3282C5.65078 15.5074 5.72 15.6784 5.8462 15.8046C5.97241 15.9308 6.1434 16 6.31847 16C6.40804 16 6.4976 15.9837 6.5831 15.9471L9.51847 14.8275C9.7831 14.7461 9.95816 14.4977 9.95816 14.2005V9.32723C9.95816 9.00967 10.0599 8.69618 10.2513 8.43969C10.2513 8.43562 10.2554 8.43562 10.2554 8.43155L15.4788 1.07074C15.6294 0.863104 15.6498 0.590331 15.5317 0.362341C15.4177 0.138422 15.1897 0 14.9373 0ZM9.59582 7.95929C9.30269 8.3542 9.14799 8.83461 9.14391 9.32723V14.1028L6.46503 15.1247V9.32723C6.46503 8.83461 6.30625 8.35827 6.01313 7.95929L0.940352 0.810178H14.6686L9.59582 7.95929Z" fill="white"/>
</svg>
