<svg width="25" height="25" viewBox="0 0 25 25" fill="none" xmlns="http://www.w3.org/2000/svg">
<circle cx="12.5" cy="12.5" r="12.5" fill="#9592A4"/>
<path d="M11.406 14.626H14.124C14.124 12.718 17.148 12.394 17.148 9.514C17.148 7.39 15.276 6.184 12.576 6.184C10.146 6.184 8.454 7.12 7.482 8.596L9.66 9.874C10.236 9.046 11.118 8.542 12.27 8.542C13.44 8.542 14.214 9.1 14.214 9.982C14.214 11.548 11.406 12.106 11.406 14.626ZM12.774 19.144C13.782 19.144 14.502 18.406 14.502 17.506C14.502 16.588 13.782 15.904 12.774 15.904C11.766 15.904 11.046 16.588 11.046 17.506C11.046 18.406 11.766 19.144 12.774 19.144Z" fill="#2C254A"/>
</svg>
