<svg width="42" height="42" viewBox="0 0 42 42" fill="none" xmlns="http://www.w3.org/2000/svg">
<path d="M0 13C0 5.8203 5.8203 0 13 0H29C36.1797 0 42 5.8203 42 13V29C42 36.1797 36.1797 42 29 42H13C5.8203 42 0 36.1797 0 29V13Z" fill="#4E7CFF"/>
<path d="M23.541 9C23.2943 9 23.0477 9 22.801 9C22.7651 9.00514 22.7296 9.01302 22.6934 9.01542C22.5074 9.02913 22.3211 9.0377 22.1355 9.05484C21.4937 9.11447 20.8659 9.24196 20.2508 9.42669C16.4838 10.5584 13.6564 13.8293 13.3646 17.8275C13.31 18.575 13.3487 19.319 13.4757 20.0586C13.6798 21.2462 14.1043 22.3549 14.7453 23.3871C14.7624 23.4146 14.7787 23.4423 14.7954 23.4701C14.8004 23.4766 14.805 23.4828 14.8099 23.4893C14.7777 23.5122 14.7414 23.5311 14.7134 23.5582C12.8865 25.3208 11.0604 27.0841 9.23319 28.8464C9.13168 28.9444 9.03123 29.0397 9 29.1815C9 29.2525 9 29.3231 9 29.394C9.00532 29.4053 9.01491 29.4167 9.01562 29.4283C9.02236 29.5465 9.06708 29.6538 9.11571 29.7597C9.24313 30.0366 9.42699 30.2765 9.64598 30.4911C9.94306 30.7821 10.243 31.071 10.5429 31.3592C10.7111 31.5213 10.8975 31.6615 11.103 31.7773C11.2531 31.862 11.4111 31.9281 11.5797 31.972C11.8363 32.0388 12.0443 31.9881 12.2402 31.7979C14.0529 30.0387 15.8719 28.2857 17.6895 26.5309C17.7201 26.5018 17.7509 26.473 17.7836 26.4422C17.8219 26.4651 17.856 26.4843 17.8894 26.5049C19.2687 27.3493 20.7729 27.834 22.4003 27.9601C22.9525 28.0029 23.5055 27.9974 24.0582 27.9495C24.5668 27.9052 25.0694 27.8274 25.5634 27.7044C27.714 27.1698 29.4869 26.0655 30.8697 24.3899C32.0407 22.9711 32.7232 21.3503 32.9355 19.548C32.9933 19.0555 33.0164 18.5613 32.9876 18.064C32.9532 17.468 32.8783 16.8782 32.7328 16.2986C32.2245 14.2766 31.154 12.5828 29.5079 11.2417C27.8152 9.86263 25.8541 9.11995 23.6383 9.01508C23.6056 9.01371 23.5733 9.00514 23.541 9ZM23.1808 24.8351C19.5547 24.8389 16.6105 22.0001 16.6059 18.4961C16.6017 15.0021 19.5366 12.1585 23.1538 12.1524C26.7802 12.1462 29.7347 14.9802 29.7403 18.4701C29.7464 21.9792 26.8071 24.8314 23.1808 24.8351Z" fill="white"/>
</svg>
