<svg width="15" height="14" viewBox="0 0 15 14" fill="none" xmlns="http://www.w3.org/2000/svg">
<path d="M9.08814 0C8.93396 0 8.77979 0 8.62561 0C8.60321 0.0031292 8.58102 0.00792732 8.5584 0.00938761C8.44216 0.0177322 8.32569 0.0229475 8.20967 0.0333782C7.80859 0.0696769 7.41617 0.147281 7.03173 0.259724C4.67739 0.948566 2.91025 2.93957 2.72791 5.37326C2.69374 5.82825 2.71792 6.28115 2.79734 6.73133C2.9249 7.45418 3.19021 8.12904 3.59084 8.75739C3.60149 8.77408 3.6117 8.79097 3.62212 8.80787C3.62523 8.81184 3.62811 8.81559 3.63122 8.81956C3.61103 8.83353 3.5884 8.84501 3.57088 8.86149C2.42909 9.93439 1.28775 11.0077 0.145746 12.0804C0.0823011 12.1401 0.0195217 12.1981 9.53674e-07 12.2844C9.53674e-07 12.3276 9.53674e-07 12.3706 9.53674e-07 12.4138C0.00332832 12.4206 0.0093174 12.4275 0.00976086 12.4346C0.0139761 12.5066 0.0419273 12.5719 0.072319 12.6363C0.151958 12.8049 0.266869 12.9509 0.403741 13.0815C0.589417 13.2586 0.776866 13.4345 0.964317 13.6099C1.06947 13.7086 1.18593 13.7939 1.31437 13.8645C1.40821 13.916 1.50693 13.9562 1.6123 13.983C1.77268 14.0236 1.90268 13.9928 2.02513 13.877C3.15804 12.8062 4.29495 11.7391 5.43097 10.671C5.45004 10.6533 5.46934 10.6357 5.48975 10.617C5.51371 10.6309 5.53501 10.6426 5.55586 10.6551C6.41791 11.1692 7.35805 11.4641 8.37516 11.5409C8.72034 11.567 9.06596 11.5637 9.41135 11.5345C9.72924 11.5075 10.0434 11.4602 10.3522 11.3853C11.6963 11.0599 12.8043 10.3877 13.6686 9.36779C14.4004 8.50413 14.827 7.5176 14.9597 6.4205C14.9958 6.12072 15.0102 5.8199 14.9923 5.5172C14.9708 5.15442 14.924 4.7954 14.833 4.44263C14.5153 3.21181 13.8463 2.18085 12.8174 1.36454C11.7595 0.52508 10.5338 0.0730147 9.14892 0.009179C9.12851 0.00834454 9.10833 0.0031292 9.08814 0ZM8.86298 9.63878C6.59671 9.64108 4.75659 7.91313 4.7537 5.78026C4.75104 3.65345 6.5854 1.92258 8.84612 1.91883C11.1126 1.91507 12.9592 3.6401 12.9627 5.76441C12.9665 7.9004 11.1295 9.63649 8.86298 9.63878Z" fill="#4E7CFF"/>
</svg>
