<svg width="15" height="15" viewBox="0 0 15 15" fill="none" xmlns="http://www.w3.org/2000/svg">
<path d="M9.08814 0C8.93396 0 8.77979 0 8.62561 0C8.60321 0.00335272 8.58102 0.00849355 8.5584 0.0100582C8.44216 0.0189987 8.32569 0.0245866 8.20967 0.0357623C7.80859 0.0746538 7.41617 0.157801 7.03173 0.278276C4.67739 1.01632 2.91025 3.14954 2.72791 5.75706C2.69374 6.24455 2.71792 6.7298 2.79734 7.21214C2.9249 7.98662 3.19021 8.70969 3.59084 9.38292C3.60149 9.4008 3.6117 9.4189 3.62212 9.43701C3.62523 9.44125 3.62811 9.44528 3.63122 9.44952C3.61103 9.4645 3.5884 9.47679 3.57088 9.49445C2.42909 10.644 1.28775 11.794 0.145746 12.9433C0.0823011 13.0072 0.0195217 13.0693 9.53674e-07 13.1619C9.53674e-07 13.2081 9.53674e-07 13.2542 9.53674e-07 13.3005C0.00332832 13.3078 0.0093174 13.3152 0.00976086 13.3228C0.0139761 13.3999 0.0419273 13.4699 0.072319 13.5389C0.151958 13.7195 0.266869 13.876 0.403741 14.0159C0.589417 14.2057 0.776866 14.3941 0.964317 14.5821C1.06947 14.6878 1.18593 14.7792 1.31437 14.8548C1.40821 14.91 1.50693 14.9531 1.6123 14.9817C1.77268 15.0253 1.90268 14.9922 2.02513 14.8682C3.15804 13.7209 4.29495 12.5776 5.43097 11.4332C5.45004 11.4142 5.46934 11.3954 5.48975 11.3753C5.51371 11.3903 5.53501 11.4028 5.55586 11.4162C6.41791 11.967 7.35805 12.283 8.37516 12.3653C8.72034 12.3932 9.06596 12.3896 9.41135 12.3583C9.72924 12.3295 10.0434 12.2788 10.3522 12.1985C11.6963 11.8498 12.8043 11.1297 13.6686 10.0369C14.4004 9.11157 14.827 8.05457 14.9597 6.87911C14.9958 6.55792 15.0102 6.23561 14.9923 5.91129C14.9708 5.5226 14.924 5.13793 14.833 4.75997C14.5153 3.44123 13.8463 2.33662 12.8174 1.46201C11.7595 0.562586 10.5338 0.0782301 9.14892 0.00983464C9.12851 0.00894058 9.10833 0.00335272 9.08814 0ZM8.86298 10.3273C6.59671 10.3297 4.75659 8.47835 4.7537 6.19314C4.75104 3.91441 6.5854 2.05991 8.84612 2.05589C11.1126 2.05186 12.9592 3.9001 12.9627 6.17615C12.9665 8.46472 11.1295 10.3248 8.86298 10.3273Z" fill="white"/>
</svg>
