<svg width="27" height="27" viewBox="0 0 27 27" fill="none" xmlns="http://www.w3.org/2000/svg">
<path d="M16.8704 14.0294C17.1438 13.7561 17.1438 13.3129 16.8704 13.0395L12.4157 8.58466C12.1424 8.31129 11.6991 8.31128 11.4258 8.58464C11.1524 8.858 11.1524 9.30122 11.4258 9.57459L15.3855 13.5344L11.4256 17.4942C11.1523 17.7675 11.1523 18.2108 11.4256 18.4841C11.699 18.7575 12.1422 18.7575 12.4156 18.4842L16.8704 14.0294ZM3.79284 12.8343C3.40624 12.8343 3.09283 13.1477 3.09283 13.5343C3.09282 13.9209 3.40622 14.2343 3.79282 14.2343L3.79284 12.8343ZM3.79282 14.2343L16.3754 14.2345L16.3754 12.8345L3.79284 12.8343L3.79282 14.2343Z" fill="#4E7CFF"/>
<path d="M4.44014 11.0599C5.03346 8.85698 6.40905 6.94573 8.30956 5.68369C10.2101 4.42165 12.5053 3.89528 14.7658 4.20306C17.0263 4.51084 19.0973 5.63169 20.5912 7.3559C22.0851 9.08011 22.8997 11.2896 22.8824 13.5709C22.8652 15.8522 22.0174 18.0491 20.4976 19.7505C18.9778 21.452 16.8901 22.5414 14.6252 22.815C12.3603 23.0886 10.0733 22.5276 8.19206 21.237C6.31083 19.9464 4.96427 18.0146 4.40431 15.803" stroke="#4E7CFF" stroke-width="2" stroke-linecap="round"/>
</svg>
