<svg width="11" height="19" viewBox="0 0 11 19" fill="none" xmlns="http://www.w3.org/2000/svg">
<path d="M7.248 12.792H4.536V11.328C4.536 10.688 4.608 10.216 4.752 9.912C4.912 9.592 5.248 9.176 5.76 8.664L7.512 6.912C7.88 6.512 8.064 6.016 8.064 5.424C8.064 4.832 7.872 4.344 7.488 3.96C7.104 3.56 6.608 3.36 6 3.36C5.392 3.36 4.88 3.552 4.464 3.936C4.064 4.304 3.832 4.8 3.768 5.424H0.864C1.024 4 1.576 2.888 2.52 2.088C3.48 1.272 4.672 0.863999 6.096 0.863999C7.52 0.863999 8.68 1.256 9.576 2.04C10.472 2.808 10.92 3.888 10.92 5.28C10.92 6.24 10.656 7.04 10.128 7.68C9.824 8.064 9.592 8.336 9.432 8.496C9.272 8.656 9.056 8.864 8.784 9.12C8.528 9.36 8.304 9.576 8.112 9.768C7.936 9.944 7.792 10.096 7.68 10.224C7.392 10.576 7.248 11.072 7.248 11.712V12.792ZM5.928 18.12C5.432 18.12 5 17.952 4.632 17.616C4.264 17.264 4.08 16.848 4.08 16.368C4.08 15.872 4.256 15.448 4.608 15.096C4.976 14.744 5.408 14.568 5.904 14.568C6.416 14.568 6.856 14.744 7.224 15.096C7.592 15.432 7.776 15.848 7.776 16.344C7.776 16.824 7.592 17.24 7.224 17.592C6.872 17.944 6.44 18.12 5.928 18.12Z" fill="#4E7CFF"/>
</svg>
