<svg width="25" height="19" viewBox="0 0 25 19" fill="none" xmlns="http://www.w3.org/2000/svg">
<path d="M12.6 13.6997C13.8 12.1997 15.6 11.1997 17.6 11.1997C21.1 11.1997 24 13.9997 24 17.4997" stroke="#4E7CFF" stroke-width="1.9843" stroke-miterlimit="10" stroke-linecap="round" stroke-linejoin="round"/>
<path d="M17.6 9.0998C19.7539 9.0998 21.5 7.35371 21.5 5.1998C21.5 3.04589 19.7539 1.2998 17.6 1.2998C15.4461 1.2998 13.7 3.04589 13.7 5.1998C13.7 7.35371 15.4461 9.0998 17.6 9.0998Z" stroke="#4E7CFF" stroke-width="1.9843" stroke-miterlimit="10" stroke-linecap="round" stroke-linejoin="round"/>
<path d="M1 17.2999C1 13.7999 3.8 10.8999 7.3 10.8999C9.5 10.8999 11.4 11.9999 12.6 13.6999" stroke="#4E7CFF" stroke-width="1.9843" stroke-miterlimit="10" stroke-linecap="round" stroke-linejoin="round"/>
<path d="M7.3 8.8C9.45391 8.8 11.2 7.05391 11.2 4.9C11.2 2.74609 9.45391 1 7.3 1C5.14608 1 3.39999 2.74609 3.39999 4.9C3.39999 7.05391 5.14608 8.8 7.3 8.8Z" stroke="#4E7CFF" stroke-width="1.9843" stroke-miterlimit="10" stroke-linecap="round" stroke-linejoin="round"/>
</svg>
