<svg width="24" height="18" viewBox="0 0 24 18" fill="none" xmlns="http://www.w3.org/2000/svg">
<path d="M7.63923 1L9.13923 2.7H14.0392L15.5392 1H18.3392C19.3392 1 20.2392 1.8 20.4392 3L21.9392 11.1C22.0392 11.9 22.1392 12.6 22.0392 13.4C21.9392 14.5 21.5392 15.8 20.3392 16.2C18.2392 16.9 16.2392 16.5 14.6392 12.5H8.43923C6.83923 16.5 4.83923 16.9 2.73923 16.2C1.53923 15.8 1.13923 14.5 1.03923 13.4C0.93923 12.7 1.03923 11.9 1.23923 11.1L2.73923 3C2.93923 1.8 3.83923 1 4.83923 1H7.63923Z" stroke="#4E7CFF" stroke-width="1.9843" stroke-miterlimit="10" stroke-linecap="round" stroke-linejoin="round"/>
<path d="M16.8392 8.6999C17.8885 8.6999 18.7392 7.84924 18.7392 6.7999C18.7392 5.75056 17.8885 4.8999 16.8392 4.8999C15.7899 4.8999 14.9392 5.75056 14.9392 6.7999C14.9392 7.84924 15.7899 8.6999 16.8392 8.6999Z" stroke="#4E7CFF" stroke-width="1.7008" stroke-miterlimit="10" stroke-linecap="round" stroke-linejoin="round"/>
</svg>
