<svg width="20" height="21" viewBox="0 0 20 21" fill="none" xmlns="http://www.w3.org/2000/svg">
<path d="M12.2 16.8998H18.2C18.2 16.8998 14.7 13.8998 14.9 10.0998C14.9 9.8998 15 9.59981 15 9.39981C15 6.59981 12.7 4.2998 9.89999 4.2998C7.09999 4.2998 4.7 6.4998 4.7 9.2998C4.7 9.4998 4.7 9.69981 4.7 9.89981C4.9 13.7998 1 16.7998 1 16.7998H7.3H9.7H12.2" stroke="#4E7CFF" stroke-width="1.7008" stroke-miterlimit="10" stroke-linecap="round" stroke-linejoin="round"/>
<path d="M12.3 17.4999C12.3 18.8999 11.2 19.9999 9.79999 19.9999C8.39999 19.9999 7.29999 18.8999 7.29999 17.4999C7.29999 17.2999 7.29999 17.0999 7.39999 16.8999H12.2C12.3 16.9999 12.3 17.1999 12.3 17.4999Z" stroke="#4E7CFF" stroke-width="1.7008" stroke-miterlimit="10" stroke-linecap="round" stroke-linejoin="round"/>
<path d="M10.5 4.3C11.1 4 11.6 3.4 11.6 2.7C11.6 1.8 10.8 1 9.90001 1C9.00001 1 8.20001 1.8 8.20001 2.7C8.20001 3.4 8.60001 4 9.30001 4.3" stroke="#4E7CFF" stroke-width="1.7008" stroke-miterlimit="10" stroke-linecap="round" stroke-linejoin="round"/>
</svg>
