<svg width="21" height="23" viewBox="0 0 21 23" fill="none" xmlns="http://www.w3.org/2000/svg">
<path d="M1 17.2C1 13.7 3.8 10.9 7.3 10.9C10.8 10.9 13.6 13.7 13.6 17.2" stroke="#4E7CFF" stroke-width="1.9843" stroke-miterlimit="10" stroke-linecap="round" stroke-linejoin="round"/>
<path d="M7.4 8.8C9.55391 8.8 11.3 7.05391 11.3 4.9C11.3 2.74609 9.55391 1 7.4 1C5.24609 1 3.5 2.74609 3.5 4.9C3.5 7.05391 5.24609 8.8 7.4 8.8Z" stroke="#4E7CFF" stroke-width="1.9843" stroke-miterlimit="10" stroke-linecap="round" stroke-linejoin="round"/>
<path d="M15.4396 8.57069C15.922 7.70322 17.0162 7.39102 17.8837 7.87338V7.87338C18.7512 8.35573 19.0634 9.44998 18.581 10.3174L13.604 19.2681L10.5708 21.025L10.4627 17.5213L15.4396 8.57069Z" fill="#2C254A" stroke="#4E7CFF" stroke-linecap="round" stroke-linejoin="round"/>
</svg>
