<svg width="22" height="22" viewBox="0 0 22 22" fill="none" xmlns="http://www.w3.org/2000/svg">
<path d="M15.1622 11.7299C15.1622 12.1623 15.0541 12.4866 14.946 12.9191C14.8379 13.2434 14.7297 13.5677 14.5135 13.7839C14.1892 14.4326 13.6487 14.9731 13 15.2975C12.6757 15.5137 12.3514 15.6218 12.027 15.7299C11.7027 15.838 11.2703 15.838 10.946 15.838C10.6216 15.838 10.1892 15.838 9.86487 15.7299C9.54055 15.6218 9.32434 15.5137 9.00001 15.4056C8.35136 15.0812 7.70272 14.4326 7.37839 13.7839C7.16218 13.4596 7.05407 13.2434 6.94596 12.9191C6.83785 12.5948 6.72974 12.1623 6.72974 11.7299C6.72974 11.2975 6.72974 10.9731 6.83785 10.6488C6.94596 10.3245 7.05406 10.1083 7.16217 9.78394C7.5946 9.02718 8.13514 8.48664 8.8919 8.05421C9.21622 7.838 9.43244 7.72989 9.75677 7.72989C10.0811 7.62178 10.5135 7.51367 10.946 7.51367C11.3784 7.51367 11.8108 7.62178 12.1351 7.72989C12.4595 7.72989 12.7838 7.9461 13 8.05421C13.6487 8.48664 14.1892 9.02719 14.6216 9.67583C14.7297 9.89205 14.8379 10.2164 14.946 10.5407C15.0541 10.865 15.1622 11.2975 15.1622 11.7299Z" stroke="#4E7CFF" stroke-width="1.7008" stroke-miterlimit="10"/>
<path d="M17.973 6.51351L18.5135 5.97297C19.054 5.43243 19.054 4.45946 18.5135 3.91892L17.6486 3.05405C17.1081 2.51351 16.1351 2.51351 15.5946 3.05405L15.0541 3.59459C14.4054 3.27027 13.7568 2.94595 13 2.72973V2.40541C13 1.64865 12.3513 1 11.5946 1H10.4054C9.64864 1 9 1.64865 9 2.40541V2.83784C8.24324 3.05405 7.48649 3.37838 6.83784 3.7027L6.51351 3.37838C5.97297 2.83784 5.1081 2.83784 4.45946 3.37838L3.5946 4.24324C3.05406 4.78378 3.05406 5.75676 3.5946 6.2973L3.81081 6.51351C3.37838 7.16216 3.05405 7.91892 2.83783 8.67568H2.4054C1.64864 8.67568 1 9.32432 1 10.0811V11.2703C1 12.027 1.64864 12.6757 2.4054 12.6757H2.83783C3.05405 13.4324 3.37838 14.1892 3.7027 14.8378L3.37837 15.1622C2.83783 15.7027 2.83783 16.6757 3.37837 17.2162L4.24324 18.0811C4.78378 18.6216 5.75676 18.6216 6.2973 18.0811L6.51351 17.8649C7.27027 18.2973 8.02702 18.6216 8.78378 18.8378V19.5946C8.78378 20.3513 9.43243 21 10.1892 21H11.3784C12.1351 21 12.7838 20.3513 12.7838 19.5946V18.8378C13.5405 18.6216 14.2973 18.2973 14.9459 17.8649L15.4865 18.4054C16.027 18.9459 17 18.9459 17.5405 18.4054L18.4054 17.5405C18.9459 17 18.9459 16.027 18.4054 15.4865L17.8649 14.9459C18.2973 14.2973 18.5135 13.5405 18.7297 12.7838H19.4865C20.2432 12.7838 20.8919 12.1351 20.8919 11.3784V10.1892C20.8919 9.43243 20.2432 8.78378 19.4865 8.78378H18.7297C18.7297 7.91892 18.4054 7.27027 17.973 6.51351Z" stroke="#4E7CFF" stroke-width="1.7008" stroke-miterlimit="10" stroke-linecap="round" stroke-linejoin="round"/>
</svg>
