<svg width="25" height="21" viewBox="0 0 25 21" fill="none" xmlns="http://www.w3.org/2000/svg">
<path d="M17.5809 8.59145C19.6772 8.59145 21.3766 6.89204 21.3766 4.79572C21.3766 2.6994 19.6772 1 17.5809 1C15.4846 1 13.7852 2.6994 13.7852 4.79572C13.7852 6.89204 15.4846 8.59145 17.5809 8.59145Z" stroke="#4D7AFA" stroke-width="1.9843" stroke-miterlimit="10" stroke-linecap="round" stroke-linejoin="round"/>
<path d="M12.2899 13.3603C13.4578 11.9004 15.2229 10.6353 17.1694 10.6353C20.5758 10.6353 23.385 13.6523 23.385 17.0587" stroke="#4D7AFA" stroke-width="1.9843" stroke-miterlimit="10" stroke-linecap="round" stroke-linejoin="round"/>
<path d="M1 17.0588C1 13.6523 3.72513 10.6353 7.13155 10.6353C9.27273 10.6353 11.1219 11.7058 12.2899 13.3603" stroke="#4D7AFA" stroke-width="1.9843" stroke-miterlimit="10" stroke-linecap="round" stroke-linejoin="round"/>
<path d="M7.13166 8.59145C9.22798 8.59145 10.9274 6.89204 10.9274 4.79572C10.9274 2.6994 9.22798 1 7.13166 1C5.03534 1 3.33594 2.6994 3.33594 4.79572C3.33594 6.89204 5.03534 8.59145 7.13166 8.59145Z" stroke="#4D7AFA" stroke-width="1.9843" stroke-miterlimit="10" stroke-linecap="round" stroke-linejoin="round"/>
<path d="M5.5127 19.1998C5.5127 15.2677 8.65837 12.1221 12.5905 12.1221C16.5226 12.1221 19.6683 15.2677 19.6683 19.1998" fill="#4D7AFA"/>
<path d="M5.5127 19.1998C5.5127 15.2677 8.65837 12.1221 12.5905 12.1221C16.5226 12.1221 19.6683 15.2677 19.6683 19.1998H5.5127Z" stroke="#2C254A" stroke-width="1.9843" stroke-miterlimit="10" stroke-linecap="round" stroke-linejoin="round"/>
<path d="M12.7028 9.76297C15.1226 9.76297 17.0843 7.80131 17.0843 5.38148C17.0843 2.96166 15.1226 1 12.7028 1C10.2829 1 8.32129 2.96166 8.32129 5.38148C8.32129 7.80131 10.2829 9.76297 12.7028 9.76297Z" fill="#4D7AFA" stroke="#2C254A" stroke-width="1.9843" stroke-miterlimit="10" stroke-linecap="round" stroke-linejoin="round"/>
</svg>
