<svg
className="navSvg"
id="faqNavSvg"
width="15"
height="25"
viewBox="0 0 15 25"
fill="none"
xmlns="http://www.w3.org/2000/svg"
>
<path
    d="M9.52267 17.2809H5.47733V15.1599C5.47733 14.2327 5.58473 13.5489 5.79952 13.1085C6.03819 12.6449 6.53938 12.0422 7.3031 11.3004L9.91647 8.76217C10.4654 8.18266 10.7399 7.46407 10.7399 6.6064C10.7399 5.74872 10.4535 5.04172 9.88067 4.4854C9.30788 3.90589 8.56802 3.61613 7.6611 3.61613C6.75418 3.61613 5.99045 3.8943 5.36993 4.45063C4.77327 4.98377 4.42721 5.70236 4.33174 6.6064H0C0.238664 4.54335 1.06205 2.93231 2.47017 1.7733C3.90215 0.591099 5.68019 0 7.8043 0C9.9284 0 11.6587 0.567919 12.9952 1.70376C14.3317 2.81641 15 4.38108 15 6.39777C15 7.78859 14.6062 8.94761 13.8186 9.87483C13.3652 10.4312 13.0191 10.8252 12.7804 11.057C12.5418 11.2888 12.2196 11.5902 11.8138 11.9611C11.432 12.3088 11.0979 12.6217 10.8115 12.8999C10.5489 13.1548 10.3341 13.3751 10.1671 13.5605C9.73747 14.0705 9.52267 14.7891 9.52267 15.7163V17.2809ZM7.5537 25C6.81384 25 6.16945 24.7566 5.62052 24.2698C5.0716 23.7598 4.79714 23.1572 4.79714 22.4618C4.79714 21.7432 5.05967 21.1289 5.58472 20.6189C6.13365 20.1089 6.77804 19.854 7.5179 19.854C8.28162 19.854 8.93795 20.1089 9.48687 20.6189C10.0358 21.1057 10.3103 21.7084 10.3103 22.427C10.3103 23.1224 10.0358 23.7251 9.48687 24.235C8.96181 24.745 8.31742 25 7.5537 25Z"
    fill="#9592A4"
/>
</svg>