<svg width="30" height="23" viewBox="0 0 30 23" fill="none" xmlns="http://www.w3.org/2000/svg">
<path d="M9.44813 0L11.5827 2.41923H18.5564L20.6911 0H24.6757C26.0987 0 27.3795 1.13846 27.6641 2.84615L29.7987 14.3731C29.9411 15.5115 30.0834 16.5077 29.9411 17.6461C29.7987 19.2115 29.2295 21.0615 27.5218 21.6308C24.5334 22.6269 21.6872 22.0577 19.4103 16.3654H10.5866C8.30967 22.0577 5.46352 22.6269 2.47506 21.6308C0.767366 21.0615 0.198136 19.2115 0.055828 17.6461C-0.0864797 16.65 0.055828 15.5115 0.340443 14.3731L2.47506 2.84615C2.75967 1.13846 4.04044 0 5.46352 0H9.44813Z" fill="#9592A4"/>
<path d="M21.8338 11.9837C23.1887 11.9837 24.287 10.8853 24.287 9.53042C24.287 8.17552 23.1887 7.07715 21.8338 7.07715C20.4789 7.07715 19.3805 8.17552 19.3805 9.53042C19.3805 10.8853 20.4789 11.9837 21.8338 11.9837Z" fill="#9592A4" stroke="#2C254A" stroke-width="1.7008" stroke-miterlimit="10" stroke-linecap="round" stroke-linejoin="round"/>
<path d="M8.83218 11.9449C10.1871 11.9449 11.2855 10.8465 11.2855 9.4916C11.2855 8.1367 10.1871 7.03833 8.83218 7.03833C7.47727 7.03833 6.37891 8.1367 6.37891 9.4916C6.37891 10.8465 7.47727 11.9449 8.83218 11.9449Z" fill="#9592A4" stroke="#2C254A" stroke-width="1.7008" stroke-miterlimit="10" stroke-linecap="round" stroke-linejoin="round"/>
</svg>
