<svg width="40" height="40" viewBox="0 0 44 44" fill="none" xmlns="http://www.w3.org/2000/svg">
<path d="M27.8846 22.9438C28.3728 22.4557 28.3728 21.6642 27.8846 21.1761L19.9298 13.221C19.4417 12.7328 18.6502 12.7328 18.162 13.221C17.6739 13.7091 17.6739 14.5006 18.162 14.9887L25.233 22.0599L18.1618 29.1309C17.6736 29.619 17.6736 30.4105 18.1618 30.8986C18.6499 31.3868 19.4414 31.3868 19.9295 30.8987L27.8846 22.9438ZM5.11795 20.8096C4.42759 20.8096 3.86794 21.3692 3.86793 22.0596C3.86792 22.7499 4.42755 23.3096 5.11791 23.3096L5.11795 20.8096ZM5.11791 23.3096L27.0007 23.3099L27.0008 20.8099L5.11795 20.8096L5.11791 23.3096Z" fill="#4E7CFF"/>
<path d="M6.24373 17.7562C7.27558 13.9251 9.66791 10.6012 12.9732 8.40633C16.2784 6.21148 20.2701 5.29605 24.2014 5.83133C28.1328 6.3666 31.7344 8.3159 34.3325 11.3145C36.9307 14.3132 38.3473 18.1557 38.3173 22.1232C38.2873 26.0907 36.8128 29.9113 34.1697 32.8704C31.5266 35.8294 27.8959 37.7241 23.9569 38.1999C20.0179 38.6757 16.0405 37.7001 12.7688 35.4555C9.4971 33.211 7.15526 29.8513 6.18141 26.0051" stroke="#4E7CFF" stroke-width="3" stroke-linecap="round"/>
</svg>
