<svg width="29" height="30" viewBox="0 0 29 30" fill="none" xmlns="http://www.w3.org/2000/svg">
<path fill-rule="evenodd" clip-rule="evenodd" d="M0 2C0 0.89543 0.89543 0 2 0H27C28.1046 0 29 0.89543 29 2C29 3.10457 28.1046 4 27 4H2C0.89543 4 0 3.10457 0 2ZM0 15C0 13.8954 0.89543 13 2 13H27C28.1046 13 29 13.8954 29 15C29 16.1046 28.1046 17 27 17H2C0.89543 17 0 16.1046 0 15ZM0 28C0 26.8954 0.89543 26 2 26H27C28.1046 26 29 26.8954 29 28C29 29.1046 28.1046 30 27 30H2C0.89543 30 0 29.1046 0 28Z" fill="#4E7CFF"/>
</svg>
