<svg width="121" height="50" viewBox="0 0 73 31" fill="none" xmlns="http://www.w3.org/2000/svg">
<path fill-rule="evenodd" clip-rule="evenodd" d="M18.7946 15.1221H20.629H22.4239L27.6824 29.8781H24.1971L23.172 26.3798H20.629H18.0465L17.0215 29.8781H13.5361L18.7946 15.1221ZM20.6288 17.7973L18.7945 23.7044H20.6288H22.4238L20.6288 17.7973Z" fill="white"/>
<path fill-rule="evenodd" clip-rule="evenodd" d="M4.47221 9.86307C4.47221 9.86307 11.6017 10.4227 11.3848 4.84596C11.2099 0.349931 7.72519 0.248225 4.67552 0.248225C4.4421 0.255004 4.2689 0.244906 4.2689 0.244906L1.21924 0.244141V14.8825H4.47221V9.86307ZM4.4724 7.14982C4.4724 7.14982 8.33531 7.77758 8.33531 4.84951C8.33531 1.92144 4.4724 2.7578 4.4724 2.7578V7.14982Z" fill="white"/>
<path fill-rule="evenodd" clip-rule="evenodd" d="M60.8535 0.244141L63.9032 0.244885C63.9032 0.244885 64.0764 0.254702 64.3098 0.248112C67.3595 0.248112 70.8442 0.346993 71.0191 4.71813C71.108 6.94077 69.759 7.91394 68.376 8.57989L72.6455 14.8825H68.986L65.733 9.15195C64.7928 9.24162 64.1065 9.18925 64.1065 9.18925V14.8825H60.8535V0.244141ZM64.1066 6.95803C64.1066 6.95803 67.9695 7.56836 67.9695 4.72162C67.9695 1.87489 64.1066 2.68801 64.1066 2.68801V6.95803Z" fill="white"/>
<path d="M72.6828 16.2488L71.397 18.4892C71.397 18.4892 66.8164 16.2488 65.2252 18.4892C62.9108 21.748 74.4829 21.1369 72.4256 27.0435C70.723 31.9316 60.8535 29.2839 60.8535 29.2839V26.4324C60.8535 26.4324 67.5316 29.1662 68.5682 26.8398C70.1112 23.3773 59.5011 23.6433 61.3678 17.94C63.2346 12.2367 72.6828 16.2488 72.6828 16.2488Z" fill="white"/>
<path d="M12.0731 28.9416V21.3413H6.34323V24.0116H9.20818V26.8874C9.20818 26.8874 3.27363 29.147 3.27363 22.3683C3.27363 14.9734 10.8477 18.0543 10.8477 18.0543L12.0731 15.5896C12.0731 15.5896 0 11.6862 0 22.1626C0 30.9947 7.36447 30.5846 12.0731 28.9416Z" fill="white"/>
<path d="M58.5361 15.1221H49.9995V29.8781H58.5361V27.2906H53.1466V23.4903H58.1526V20.9255H53.1466V17.6826H58.5361V15.1221Z" fill="white"/>
<path d="M58.5361 0.609375H49.9995V15.1215H58.5361V12.5768H53.1466V8.83927H58.1526V6.31687H53.1466V3.12763H58.5361V0.609375Z" fill="white"/>
<path fill-rule="evenodd" clip-rule="evenodd" d="M20.6378 15.1899C23.9221 15.1899 27.617 13.5478 27.617 7.59496C27.617 1.64215 23.9221 0 20.6378 0C17.3535 0 13.6587 1.64215 13.6587 7.59496C13.6587 13.5478 17.3535 15.1899 20.6378 15.1899ZM20.6385 12.7268C22.3773 12.7268 24.3333 11.6616 24.3333 7.80033C24.3333 3.93905 22.3773 2.87387 20.6385 2.87387C18.8998 2.87387 16.9437 3.93905 16.9437 7.80033C16.9437 11.6616 18.8998 12.7268 20.6385 12.7268Z" fill="white"/>
<path d="M34.756 15.375L36.1732 16.9811H40.8031L42.2202 15.375H44.8656C45.8104 15.375 46.6607 16.1308 46.8497 17.2646L48.2668 24.9173C48.3613 25.6731 48.4558 26.3345 48.3613 27.0903C48.2668 28.1296 47.8889 29.3578 46.7552 29.7357C44.7711 30.397 42.8816 30.0191 41.3699 26.24H35.5119C34.0002 30.0191 32.1106 30.397 30.1266 29.7357C28.9929 29.3578 28.6149 28.1296 28.5205 27.0903C28.426 26.429 28.5205 25.6731 28.7094 24.9173L30.1266 17.2646C30.3156 16.1308 31.1659 15.375 32.1106 15.375H34.756Z" fill="#4E7CFF" stroke="white" stroke-width="0.7" stroke-miterlimit="10" stroke-linecap="round" stroke-linejoin="round"/>
<path d="M42.9793 23.3307C43.8788 23.3307 44.6081 22.6015 44.6081 21.702C44.6081 20.8025 43.8788 20.0732 42.9793 20.0732C42.0798 20.0732 41.3506 20.8025 41.3506 21.702C41.3506 22.6015 42.0798 23.3307 42.9793 23.3307Z" fill="white" stroke="white" stroke-width="0.7" stroke-miterlimit="10" stroke-linecap="round" stroke-linejoin="round"/>
<path d="M34.3475 23.3053C35.247 23.3053 35.9762 22.5761 35.9762 21.6766C35.9762 20.7771 35.247 20.0479 34.3475 20.0479C33.448 20.0479 32.7188 20.7771 32.7188 21.6766C32.7188 22.5761 33.448 23.3053 34.3475 23.3053Z" fill="white" stroke="white" stroke-width="0.7" stroke-miterlimit="10" stroke-linecap="round" stroke-linejoin="round"/>
<path d="M42.1439 15.375L40.7267 13.7689L36.0968 13.7689L34.6797 15.375H32.0343C31.0895 15.375 30.2392 14.6192 30.0502 13.4854L28.6331 5.83269C28.5386 5.07687 28.4441 4.41552 28.5386 3.65969C28.6331 2.62043 29.011 1.39221 30.1447 1.0143C32.1288 0.352951 34.0183 0.730864 35.53 4.51L41.388 4.51C42.8997 0.730864 44.7893 0.352951 46.7733 1.0143C47.907 1.39221 48.285 2.62043 48.3794 3.65969C48.4739 4.32104 48.3794 5.07687 48.1905 5.83269L46.7733 13.4854C46.5844 14.6192 45.734 15.375 44.7893 15.375H42.1439Z" fill="#F24E61" stroke="white" stroke-width="0.7" stroke-miterlimit="10" stroke-linecap="round" stroke-linejoin="round"/>
<path d="M33.9211 7.41832C33.0215 7.41832 32.2923 8.14752 32.2923 9.04705C32.2923 9.94657 33.0215 10.6758 33.9211 10.6758C34.8206 10.6758 35.5498 9.94657 35.5498 9.04705C35.5498 8.14752 34.8206 7.41832 33.9211 7.41832Z" fill="white" stroke="white" stroke-width="0.7" stroke-miterlimit="10" stroke-linecap="round" stroke-linejoin="round"/>
<path d="M42.5534 7.44468C41.6539 7.44468 40.9247 8.17389 40.9247 9.07342C40.9247 9.97294 41.6539 10.7021 42.5534 10.7021C43.4529 10.7021 44.1821 9.97294 44.1821 9.07342C44.1821 8.17389 43.4529 7.44468 42.5534 7.44468Z" fill="white" stroke="white" stroke-width="0.7" stroke-miterlimit="10" stroke-linecap="round" stroke-linejoin="round"/>
</svg>
