<svg width="30" height="27" viewBox="0 0 30 27" fill="none" xmlns="http://www.w3.org/2000/svg">
<path d="M13.9454 3.1049C14.2351 2.16382 15.5672 2.16383 15.8569 3.1049L16.1853 4.17172C16.3144 4.59126 16.7021 4.87752 17.141 4.87752H18.314C19.2696 4.87752 19.6808 6.08951 18.9225 6.67104L17.8822 7.46885C17.5505 7.72322 17.4121 8.15706 17.535 8.55656L17.9102 9.7753C18.1967 10.7062 17.1188 11.4558 16.3459 10.863L15.5097 10.2217C15.1507 9.94643 14.6516 9.94643 14.2926 10.2217L13.4564 10.863C12.6835 11.4558 11.6056 10.7062 11.8921 9.7753L12.2673 8.55656C12.3903 8.15706 12.2518 7.72322 11.9201 7.46885L10.8798 6.67104C10.1215 6.08951 10.5328 4.87752 11.4884 4.87752H12.6613C13.1003 4.87752 13.4879 4.59125 13.617 4.17172L13.9454 3.1049Z" fill="#9592A4"/>
<path d="M4.38534 11.0247C4.63252 10.2216 5.76923 10.2216 6.01642 11.0247C6.12661 11.3827 6.46108 11.6269 6.83564 11.6269C7.67544 11.6269 8.05201 12.6921 7.38562 13.2031L7.31078 13.2605C7.016 13.4866 6.89292 13.8721 7.00221 14.2272L7.04086 14.3527C7.28351 15.141 6.37069 15.7757 5.7162 15.2738C5.4122 15.0407 4.98955 15.0407 4.68555 15.2738C4.03106 15.7757 3.11824 15.141 3.36089 14.3527L3.39954 14.2272C3.50883 13.8721 3.38575 13.4866 3.09097 13.2605L3.01613 13.2031C2.34974 12.6921 2.72631 11.6269 3.56611 11.6269C3.94067 11.6269 4.27514 11.3827 4.38534 11.0247Z" fill="#9592A4"/>
<path d="M23.7877 13.6287C24.0349 12.8256 25.1716 12.8256 25.4188 13.6287C25.529 13.9867 25.8634 14.2309 26.238 14.2309C27.0778 14.2309 27.4544 15.2961 26.788 15.8071L26.7131 15.8645C26.4183 16.0906 26.2953 16.4762 26.4046 16.8312L26.4432 16.9567C26.6859 17.745 25.773 18.3798 25.1185 17.8778C24.8145 17.6447 24.3919 17.6447 24.0879 17.8778C23.4334 18.3798 22.5206 17.745 22.7632 16.9567L22.8019 16.8312C22.9112 16.4762 22.7881 16.0906 22.4933 15.8645L22.4185 15.8071C21.7521 15.2961 22.1287 14.2309 22.9685 14.2309C23.343 14.2309 23.6775 13.9867 23.7877 13.6287Z" fill="#9592A4"/>
<path d="M9.33301 15C9.33301 14.4477 9.78072 14 10.333 14H18.9997C19.552 14 19.9997 14.4477 19.9997 15V26.6667H9.33301V15Z" fill="#9592A4"/>
<path d="M1 19C1 18.4477 1.44772 18 2 18H10.3333V26.6667H2C1.44771 26.6667 1 26.219 1 25.6667V19Z" fill="#9592A4"/>
<path d="M19 21.3333H28C28.5523 21.3333 29 21.781 29 22.3333V25.6666C29 26.2189 28.5523 26.6666 28 26.6666H19V21.3333Z" fill="#9592A4"/>
</svg>
