<svg width="32" height="36" viewBox="0 0 33 37" fill="none" xmlns="http://www.w3.org/2000/svg">
<path d="M1 28.9062C1 22.877 5.82333 18.0537 11.8525 18.0537C17.8817 18.0537 22.705 22.877 22.705 28.9062" stroke="#4E7CFF" stroke-width="2" stroke-miterlimit="10" stroke-linecap="round" stroke-linejoin="round"/>
<path d="M12.0246 14.4364C15.735 14.4364 18.7428 11.4286 18.7428 7.71821C18.7428 4.00785 15.735 1 12.0246 1C8.31424 1 5.3064 4.00785 5.3064 7.71821C5.3064 11.4286 8.31424 14.4364 12.0246 14.4364Z" stroke="#4E7CFF" stroke-width="2" stroke-miterlimit="10" stroke-linecap="round" stroke-linejoin="round"/>
<path d="M25.8739 14.0414C26.7048 12.5471 28.5898 12.0093 30.0841 12.8402C31.5784 13.6711 32.1162 15.5561 31.2853 17.0504L22.7119 32.4689L17.4868 35.4955L17.3005 29.4599L25.8739 14.0414Z" fill="#2C254A" stroke="#4E7CFF" stroke-width="2" stroke-linecap="round" stroke-linejoin="round"/>
</svg>
