<svg width="31" height="30" viewBox="0 0 31 30" fill="none" xmlns="http://www.w3.org/2000/svg">
<path d="M24.6026 27.9582C24.8183 27.7533 25.0443 27.5384 25.2852 27.3093C23.9893 26.0896 22.7106 24.8864 21.4358 23.6863C21.0052 24.1187 20.58 24.5451 20.1667 24.9604C19.4576 24.2498 18.7803 23.5713 18.0969 22.8864C18.4834 22.5011 18.8884 22.0977 19.3055 21.6817C18.0249 20.4762 16.7646 19.2898 15.4882 18.0885C14.2172 19.2856 12.9489 20.4804 11.6836 21.6717C12.0939 22.0808 12.4949 22.4804 12.8956 22.8795C12.1931 23.5782 11.512 24.2551 10.8305 24.9328C10.4179 24.5248 9.99426 24.1061 9.55718 23.674C8.26586 24.8895 6.98296 26.0969 5.68359 27.3201C5.91266 27.535 6.13446 27.743 6.3417 27.9372C5.64337 28.6347 4.96534 29.312 4.30033 29.9762C2.88489 28.5608 1.44034 27.1159 0 25.6755C0.656197 25.019 1.33499 24.3398 2.02605 23.6487C2.23176 23.8644 2.44168 24.0843 2.66463 24.3179C3.89198 23.0147 5.09941 21.733 6.30952 20.4478C5.87666 20.0218 5.45183 19.6035 5.03467 19.1925C5.73913 18.4911 6.41985 17.8131 7.11933 17.1166C7.49934 17.5051 7.89466 17.9092 8.30416 18.3275C9.47137 17.0879 10.6267 15.8609 11.7962 14.6194C11.4338 14.2762 11.0803 13.9399 10.7252 13.6051C8.99522 11.9759 7.26451 10.3471 5.53419 8.71864C4.56465 7.80617 3.60085 6.88719 2.61981 5.98698C2.4095 5.79391 2.36851 5.55526 2.30799 5.31431C1.86593 3.55411 1.42885 1.79276 0.982571 0C1.22237 0.0566941 1.44608 0.106876 1.66826 0.162804C3.32925 0.579582 4.99024 0.996744 6.64969 1.4185C6.73052 1.4388 6.81594 1.48745 6.87263 1.5476C8.88375 3.67937 10.8906 5.81536 12.9002 7.94829C14.3203 9.45528 15.7464 10.9565 17.1653 12.4643C18.9772 14.39 20.7842 16.3195 22.5938 18.2475C22.6102 18.2651 22.6298 18.28 22.6566 18.3042C23.0546 17.9012 23.4473 17.5039 23.8273 17.1193C24.5214 17.8138 25.1963 18.4892 25.8682 19.1611C25.4699 19.5568 25.0519 19.9717 24.6214 20.3992C25.8636 21.7184 27.0711 23.0013 28.2873 24.2934C28.5064 24.0693 28.7144 23.856 28.9175 23.648C29.6058 24.3379 30.2827 25.0159 30.9485 25.6828C29.5193 27.1117 28.074 28.5566 26.6302 30C25.9759 29.3411 25.2998 28.6604 24.6026 27.9582Z" fill="#9592A4"/>
<path d="M29.9924 0.0146407C29.5618 1.73653 29.1358 3.44157 28.7099 5.14623C28.6976 5.19564 28.6842 5.24506 28.6788 5.29524C28.6363 5.69593 28.3904 5.9591 28.1088 6.22227C26.1678 8.03533 24.2364 9.85874 22.3015 11.6783C21.8981 12.0579 21.4936 12.4368 21.104 12.8022C19.8043 11.499 18.5061 10.1974 17.1948 8.88268C17.4293 8.63215 17.6928 8.34945 17.9579 8.06789C19.368 6.56971 20.7777 5.07153 22.1881 3.57373C22.8256 2.89685 23.463 2.21958 24.1042 1.54577C24.1579 1.48946 24.2349 1.44042 24.3092 1.42127C26.1774 0.948179 28.0468 0.479303 29.9161 0.0108101C29.9342 0.00697939 29.9533 0.0127254 29.9924 0.0146407Z" fill="#9592A4"/>
</svg>
