<svg width="19" height="21" viewBox="0 0 19 21" fill="none" xmlns="http://www.w3.org/2000/svg">
<path d="M11.2148 11.1404C11.8114 11.1404 12.295 10.6188 12.295 9.97545C12.295 9.33209 11.8114 8.81055 11.2148 8.81055C10.6183 8.81055 10.1346 9.33209 10.1346 9.97545C10.1346 10.6188 10.6183 11.1404 11.2148 11.1404Z" fill="#4E7CFF"/>
<path d="M7.34935 8.81055C6.74572 8.81055 6.26917 9.32946 6.26917 9.97545C6.26917 10.6214 6.75631 11.1404 7.34935 11.1404C7.95298 11.1404 8.42953 10.6214 8.42953 9.97545C8.44012 9.32946 7.95298 8.81055 7.34935 8.81055Z" fill="#4E7CFF"/>
<path d="M16.3616 0H2.17095C0.974281 0 0 0.974281 0 2.17095V16.3616C0 17.5582 0.974281 18.5325 2.17095 18.5325H14.18L13.6188 16.5946L14.9743 17.8442L16.2557 19.0197L18.5431 21V2.17095C18.5325 0.974281 17.5582 0 16.3616 0ZM12.2738 13.7141C12.2738 13.7141 11.8926 13.2587 11.5749 12.8669C12.9622 12.475 13.4917 11.6172 13.4917 11.6172C13.0575 11.9032 12.6445 12.1044 12.2738 12.2421C11.7443 12.4644 11.236 12.6021 10.7383 12.6974C9.72163 12.888 8.78971 12.8351 7.99546 12.6868C7.39183 12.5703 6.87292 12.4115 6.43873 12.2315C6.19516 12.1362 5.93041 12.0197 5.66566 11.8714C5.63389 11.8502 5.60212 11.8396 5.57035 11.8185C5.54917 11.8079 5.53858 11.7973 5.52799 11.7973C5.33737 11.6914 5.23147 11.6172 5.23147 11.6172C5.23147 11.6172 5.73979 12.4539 7.08472 12.8563C6.76702 13.2587 6.37519 13.7247 6.37519 13.7247C4.0348 13.6505 3.14523 12.1256 3.14523 12.1256C3.14523 8.74735 4.6702 6.00454 4.6702 6.00454C6.19516 4.87141 7.6354 4.90318 7.6354 4.90318L7.7413 5.03026C5.8351 5.57035 4.96672 6.40696 4.96672 6.40696C4.96672 6.40696 5.1997 6.27988 5.59153 6.11044C6.72466 5.61271 7.62481 5.48563 7.99546 5.44327C8.059 5.43268 8.11195 5.42209 8.17549 5.42209C8.82148 5.33737 9.55219 5.31619 10.3147 5.40091C11.3207 5.5174 12.4009 5.81392 13.5023 6.40696C13.5023 6.40696 12.6657 5.61271 10.8654 5.07262L11.0136 4.90318C11.0136 4.90318 12.4644 4.87141 13.9788 6.00454C13.9788 6.00454 15.5038 8.74735 15.5038 12.1256C15.5038 12.115 14.6142 13.6399 12.2738 13.7141Z" fill="#4E7CFF"/>
</svg>
