<svg width="21" height="21" viewBox="0 0 21 21" fill="none" xmlns="http://www.w3.org/2000/svg">
<path fill-rule="evenodd" clip-rule="evenodd" d="M10.5 0C16.2981 0 21 4.7019 21 10.5C21 15.2927 17.7872 19.3361 13.3983 20.5943V12.8238H15.6625L16.0019 10.1948H13.3983V8.52036C13.3983 7.76109 13.6092 7.24358 14.698 7.24358H16.0781V4.89864C15.838 4.86676 15.0141 4.7953 14.0557 4.7953C12.0543 4.7953 10.6846 6.01648 10.6846 8.26016V10.1948H8.42871V12.8238H10.6846V20.9976L10.6638 20.998C10.6092 20.999 10.5547 21 10.5 21C4.7019 21 0 16.2981 0 10.5C0 4.7019 4.7019 0 10.5 0ZM13.1838 20.6531C13.1514 20.6616 13.1189 20.6702 13.0864 20.6784C13.1189 20.6702 13.1514 20.6618 13.1838 20.6531Z" fill="#4E7CFF"/>
</svg>
