<svg width="21" height="21" viewBox="0 0 21 21" fill="none" xmlns="http://www.w3.org/2000/svg">
<path fill-rule="evenodd" clip-rule="evenodd" d="M0 10.5C0 4.7019 4.7019 0 10.5 0C16.2981 0 21 4.7019 21 10.5C21 16.2981 16.2981 21 10.5 21C4.7019 21 0 16.2981 0 10.5ZM16.2127 14.4494C16.3617 14.0658 16.4638 13.6276 16.4929 12.9858C16.5224 12.3428 16.5293 12.1374 16.5293 10.5C16.5293 8.86258 16.5224 8.65718 16.4931 8.01423C16.4638 7.3724 16.3619 6.9342 16.2127 6.55064C16.0615 6.14834 15.824 5.784 15.5174 5.4828C15.2162 5.17598 14.8517 4.93854 14.4494 4.78713C14.0658 4.63829 13.6276 4.53639 12.9858 4.50723C12.3428 4.47775 12.1374 4.4707 10.5 4.4707C8.86258 4.4707 8.65718 4.47775 8.01423 4.50707C7.3724 4.53639 6.9342 4.63829 6.55064 4.78729C6.14834 4.9387 5.78384 5.17598 5.4828 5.4828C5.17598 5.78384 4.93854 6.14834 4.78713 6.55064C4.63813 6.9342 4.53623 7.3724 4.50707 8.01423C4.47759 8.65718 4.4707 8.86258 4.4707 10.5C4.4707 12.1374 4.47759 12.3428 4.50723 12.9859C4.53639 13.6276 4.63845 14.066 4.78745 14.4494C4.93886 14.8517 5.17614 15.2162 5.4828 15.5172C5.784 15.824 6.14834 16.0613 6.5508 16.2127C6.9342 16.3617 7.37256 16.4636 8.01423 16.4929C8.65734 16.5222 8.86258 16.5293 10.5002 16.5293C12.1376 16.5293 12.343 16.5222 12.9859 16.4929C13.6276 16.4636 14.066 16.3617 14.4494 16.2127C15.2593 15.8995 15.8995 15.2593 16.2127 14.4494ZM15.2001 6.94416C15.1035 6.68237 14.9494 6.4454 14.7491 6.2509C14.5546 6.05063 14.3178 5.8965 14.0559 5.79989C13.8434 5.71738 13.5243 5.61916 12.9364 5.59241C12.3005 5.56341 12.1099 5.55716 10.5 5.55716C8.88998 5.55716 8.69932 5.56325 8.06358 5.59225C7.47574 5.61916 7.15643 5.71738 6.94414 5.79989C6.68218 5.8965 6.44522 6.05063 6.25088 6.2509C6.05061 6.4454 5.89648 6.68221 5.79971 6.94416C5.71719 7.15661 5.61898 7.47592 5.59222 8.06376C5.56322 8.6995 5.55698 8.89016 5.55698 10.5002C5.55698 12.11 5.56322 12.3007 5.59222 12.9366C5.61898 13.5244 5.71719 13.8436 5.79971 14.056C5.89648 14.318 6.05045 14.5548 6.25072 14.7493C6.44522 14.9496 6.68202 15.1037 6.94398 15.2003C7.15643 15.283 7.47574 15.3812 8.06358 15.408C8.69932 15.437 8.88982 15.443 10.4998 15.443C12.11 15.443 12.3007 15.437 12.9363 15.408C13.5241 15.3812 13.8434 15.283 14.0559 15.2003C14.5817 14.9975 14.9973 14.5819 15.2001 14.056C15.2826 13.8436 15.3809 13.5244 15.4078 12.9366C15.4368 12.3007 15.4429 12.11 15.4429 10.5002C15.4429 8.89016 15.4368 8.6995 15.4078 8.06376C15.381 7.47592 15.2828 7.15661 15.2001 6.94416ZM10.5 13.5961C8.79 13.5961 7.4038 12.21 7.4038 10.5C7.4038 8.79002 8.79 7.40398 10.5 7.40398C12.2098 7.40398 13.596 8.79002 13.596 10.5C13.596 12.21 12.2098 13.5961 10.5 13.5961ZM13.7184 8.00512C13.3189 8.00512 12.9949 7.68116 12.9949 7.28158C12.9949 6.882 13.3189 6.55804 13.7184 6.55804C14.118 6.55804 14.442 6.882 14.442 7.28158C14.4418 7.68116 14.118 8.00512 13.7184 8.00512ZM12.5098 10.5C12.5098 11.61 11.61 12.5098 10.5 12.5098C9.39001 12.5098 8.49023 11.61 8.49023 10.5C8.49023 9.39001 9.39001 8.49023 10.5 8.49023C11.61 8.49023 12.5098 9.39001 12.5098 10.5Z" fill="#4E7CFF"/>
</svg>
