<svg width="21" height="21" viewBox="0 0 21 21" fill="none" xmlns="http://www.w3.org/2000/svg">
<path fill-rule="evenodd" clip-rule="evenodd" d="M20.918 10.5C20.918 16.2537 16.2537 20.918 10.5 20.918C4.74632 20.918 0.0820312 16.2537 0.0820312 10.5C0.0820312 4.74632 4.74632 0.0820312 10.5 0.0820312C16.2537 0.0820312 20.918 4.74632 20.918 10.5ZM4.12207 6.27539L5.02441 3.97852H16.8779V12.1406L13.3916 15.627H10.8076L9.12598 17.3496H7.32129V15.627H4.12207V6.27539ZM13.7197 13.5352L15.6885 11.5664V5.16797H6.13184V13.5352H8.79785V15.2578L10.5205 13.5352H13.7197ZM13.7197 10.9512V7.46484H12.4893V10.9512H13.7197ZM10.5205 10.9512V7.46484H9.33105V10.9512H10.5205Z" fill="#4E7CFF"/>
</svg>
