<svg width="21" height="21" viewBox="0 0 21 21" fill="none" xmlns="http://www.w3.org/2000/svg">
<path d="M10.5 0C4.70121 0 0 4.70099 0 10.5C0 16.299 4.70121 21 10.5 21C16.2988 21 21 16.299 21 10.5C21 4.70099 16.2988 0 10.5 0ZM15.8262 11.6356C16.3155 12.1136 16.8333 12.5635 17.2726 13.0909C17.4673 13.3242 17.6507 13.5655 17.7904 13.8368C17.9897 14.2237 17.8097 14.648 17.4634 14.671L15.3123 14.6706C14.7567 14.7165 14.3146 14.4925 13.9419 14.1126C13.6443 13.8099 13.3682 13.4866 13.0817 13.1736C12.9646 13.0451 12.8413 12.9242 12.6943 12.829C12.4011 12.6382 12.1463 12.6967 11.9783 13.003C11.807 13.3148 11.7679 13.6602 11.7516 14.0072C11.7282 14.5144 11.5752 14.6469 11.0663 14.6708C9.97881 14.7217 8.94697 14.5567 7.98795 14.0085C7.14193 13.5249 6.48712 12.8423 5.91652 12.0696C4.8054 10.5632 3.95445 8.9098 3.18985 7.20896C3.01777 6.82591 3.14366 6.62096 3.56624 6.61301C4.26832 6.59948 4.97039 6.6012 5.67247 6.61237C5.9582 6.61688 6.14725 6.78037 6.25703 7.04999C6.63643 7.98344 7.10155 8.87156 7.68439 9.69523C7.83971 9.91458 7.99826 10.1333 8.22405 10.2882C8.47326 10.4592 8.66317 10.4027 8.78069 10.1245C8.85588 9.94766 8.88832 9.75861 8.90464 9.56913C8.9605 8.92011 8.96716 8.27131 8.87049 7.62488C8.81033 7.22035 8.58282 6.95911 8.17958 6.88263C7.9742 6.84374 8.00428 6.76769 8.10417 6.65039C8.27754 6.44759 8.43996 6.32213 8.76457 6.32213L11.195 6.3217C11.578 6.39689 11.664 6.56876 11.716 6.9546L11.7181 9.65549C11.7136 9.8048 11.7931 10.2474 12.0612 10.3451C12.276 10.416 12.4178 10.2437 12.5463 10.1077C13.1291 9.48921 13.5444 8.7592 13.9163 8.00363C14.0804 7.67042 14.222 7.32562 14.3595 6.98016C14.4617 6.72473 14.6207 6.59905 14.909 6.60335L17.2494 6.60614C17.3184 6.60614 17.3884 6.60678 17.4567 6.6186C17.8512 6.68606 17.9592 6.85577 17.8372 7.24054C17.6452 7.84508 17.272 8.34865 16.9072 8.85351C16.5162 9.39404 16.0992 9.91565 15.7121 10.4585C15.3563 10.9548 15.3845 11.2047 15.8262 11.6356Z" fill="#4E7CFF"/>
</svg>
