<svg width="19" height="19" viewBox="0 0 11 11" fill="none" xmlns="http://www.w3.org/2000/svg">
<path d="M10.9386 8.80246C10.9386 8.57227 10.8465 8.34208 10.6808 8.17634L7.97377 5.46931L10.6808 2.76228C10.8465 2.59654 10.9386 2.36635 10.9386 2.13616C10.9386 1.90597 10.8465 1.67578 10.6808 1.51004L9.42857 0.257812C9.26283 0.092076 9.03264 0 8.80245 0C8.57227 0 8.34208 0.092076 8.17634 0.257812L5.46931 2.96484L2.76228 0.257812C2.59654 0.092076 2.36635 0 2.13616 0C1.90597 0 1.67578 0.092076 1.51004 0.257812L0.257812 1.51004C0.0920759 1.67578 0 1.90597 0 2.13616C0 2.36635 0.0920759 2.59654 0.257812 2.76228L2.96484 5.46931L0.257812 8.17634C0.0920759 8.34208 0 8.57227 0 8.80246C0 9.03265 0.0920759 9.26284 0.257812 9.42857L1.51004 10.6808C1.67578 10.8465 1.90597 10.9386 2.13616 10.9386C2.36635 10.9386 2.59654 10.8465 2.76228 10.6808L5.46931 7.97377L8.17634 10.6808C8.34208 10.8465 8.57227 10.9386 8.80245 10.9386C9.03264 10.9386 9.26283 10.8465 9.42857 10.6808L10.6808 9.42857C10.8465 9.26284 10.9386 9.03265 10.9386 8.80246Z" fill="#9592A4"/>
</svg>
