<svg width="28" height="7" viewBox="0 0 28 7" fill="none" xmlns="http://www.w3.org/2000/svg">
<path d="M2.93 6.24C4.55 6.24 5.84 5.01 5.84 3.3C5.84 1.56 4.55 0.42 2.93 0.42C1.31 0.42 0.0200001 1.56 0.0200001 3.3C0.0200001 5.01 1.31 6.24 2.93 6.24ZM13.7816 6.24C15.4016 6.24 16.6916 5.01 16.6916 3.3C16.6916 1.56 15.4016 0.42 13.7816 0.42C12.1616 0.42 10.8716 1.56 10.8716 3.3C10.8716 5.01 12.1616 6.24 13.7816 6.24ZM24.6331 6.24C26.2531 6.24 27.5431 5.01 27.5431 3.3C27.5431 1.56 26.2531 0.42 24.6331 0.42C23.0131 0.42 21.7231 1.56 21.7231 3.3C21.7231 5.01 23.0131 6.24 24.6331 6.24Z" fill="#4E7CFF"/>
</svg>
