<svg width="15" height="15" viewBox="0 0 17 16" fill="none" xmlns="http://www.w3.org/2000/svg">
<path d="M16.7143 6.17745C16.7143 5.87612 16.3929 5.75558 16.1518 5.7154L11.1094 4.98214L8.84933 0.41183C8.75893 0.220982 8.58817 0 8.35714 0C8.12612 0 7.95536 0.220982 7.86496 0.41183L5.60491 4.98214L0.5625 5.7154C0.311384 5.75558 0 5.87612 0 6.17745C0 6.35826 0.13058 6.52902 0.251116 6.6596L3.90737 10.2154L3.04353 15.2377C3.03348 15.308 3.02344 15.3683 3.02344 15.4386C3.02344 15.6998 3.15402 15.9408 3.44531 15.9408C3.58594 15.9408 3.71652 15.8906 3.8471 15.8203L8.35714 13.4498L12.8672 15.8203C12.9877 15.8906 13.1283 15.9408 13.269 15.9408C13.5603 15.9408 13.6808 15.6998 13.6808 15.4386C13.6808 15.3683 13.6808 15.308 13.6708 15.2377L12.8069 10.2154L16.4531 6.6596C16.5837 6.52902 16.7143 6.35826 16.7143 6.17745Z" fill="#F2B04E"/>
</svg>
