<svg width="42" height="42" viewBox="0 0 42 42" fill="none" xmlns="http://www.w3.org/2000/svg">
<path d="M0 13C0 5.8203 5.8203 0 13 0H29C36.1797 0 42 5.8203 42 13V29C42 36.1797 36.1797 42 29 42H13C5.8203 42 0 36.1797 0 29V13Z" fill="#4E7CFF"/>
<path d="M8.99985 20.1305C8.99985 25.7254 14.164 30.261 20.5343 30.261C22.1881 30.261 23.7606 29.9553 25.1826 29.4048C27.9371 31.1655 31.034 31.6175 31.7245 31.1655C32.4204 30.71 28.7519 27.2799 29.3143 26.7007C31.032 24.9318 32.0688 22.6375 32.0688 20.1305C32.0688 14.5356 26.9047 10 20.5343 10C14.164 10 8.99985 14.5356 8.99985 20.1305Z" fill="white"/>
</svg>
