<svg width="21" height="21" viewBox="0 0 16 18" fill="none" xmlns="http://www.w3.org/2000/svg">
<path d="M7.65109 0.00402604C9.05544 0.00402604 10.4598 0.0096346 11.8639 1.99199e-05C12.2042 -0.00238375 12.4106 0.212945 12.4172 0.537641C12.4414 1.72926 12.426 2.91928 12.3126 4.10629C12.2539 4.72023 12.1924 5.33597 12.0103 5.92887C11.8062 6.59409 11.4469 7.17918 11.0327 7.73162C10.328 8.67146 9.49391 9.4857 8.57691 10.2152C8.27625 10.4544 8.16207 10.7374 8.22958 11.1172C8.42327 12.2051 8.65923 13.2819 9.00997 14.3313C9.11092 14.6332 9.34488 14.802 9.66537 14.8022C10.3925 14.8026 11.1196 14.8032 11.8469 14.8018C12.013 14.8014 12.1664 14.8399 12.2561 14.9857C12.3076 15.0692 12.3437 15.1772 12.3447 15.2745C12.3519 16.0249 12.3499 16.7754 12.3481 17.526C12.3473 17.8192 12.1636 17.9997 11.8705 17.9997C9.05864 18.0001 6.24675 18.0001 3.43486 17.9997C3.1372 17.9997 2.95613 17.8178 2.95572 17.5176C2.95452 16.7804 2.95512 16.0433 2.95552 15.306C2.95572 14.9809 3.13139 14.803 3.45549 14.8026C4.17939 14.8016 4.9031 14.8024 5.627 14.8022C5.96532 14.8022 6.19287 14.636 6.30023 14.3141C6.65898 13.239 6.90215 12.1359 7.08783 11.0198C7.13991 10.707 7.02293 10.4528 6.77435 10.2555C5.90663 9.56663 5.11182 8.80306 4.42477 7.93173C3.94944 7.32881 3.52059 6.69284 3.30606 5.9483C3.18307 5.52145 3.11016 5.07657 3.05307 4.6349C2.8768 3.26881 2.85497 1.89511 2.89143 0.519813C2.90044 0.179694 3.08011 0.00462695 3.41843 0.00442665C4.82918 0.00402604 6.24014 0.00402604 7.65109 0.00402604ZM7.64528 16.8638C8.3756 16.8638 9.10591 16.864 9.83623 16.8636C10.0297 16.8636 10.1114 16.7832 10.1118 16.5922C10.1125 16.2486 10.1125 15.9051 10.1118 15.5618C10.1116 15.3745 10.0309 15.2912 9.84524 15.2912C8.38461 15.2906 6.92398 15.2906 5.46335 15.2912C5.27246 15.2912 5.19294 15.3737 5.19274 15.5682C5.19234 15.9051 5.19254 16.2418 5.19274 16.5787C5.19294 16.7864 5.26926 16.8638 5.47457 16.864C6.19787 16.8638 6.92158 16.8638 7.64528 16.8638Z" fill="#F2B04E"/>
<path d="M15.2946 3.99211C15.2819 4.53775 15.1748 5.1627 14.8266 5.71294C14.3742 6.42803 13.7139 6.78538 12.8588 6.75133C12.6399 6.74271 12.4314 6.67862 12.2383 6.57526C12.2046 6.55723 12.1658 6.49293 12.174 6.46188C12.2307 6.24676 12.2958 6.03343 12.3659 5.82211C12.3877 5.75621 12.446 5.73297 12.5207 5.74579C13.0497 5.83633 13.588 5.40387 13.736 5.02689C13.8544 4.72563 13.9239 4.41496 13.9481 4.09427C13.9763 3.7203 13.9639 3.34973 13.8696 2.98217C13.7734 2.608 13.5607 2.4103 13.0702 2.41731C13.0069 2.41811 12.9438 2.42933 12.8805 2.42973C12.7901 2.43033 12.72 2.37485 12.7192 2.28631C12.7178 2.13007 12.7256 1.97343 12.7375 1.81739C12.7439 1.73166 12.7955 1.67718 12.8783 1.64072C13.6527 1.299 14.5074 1.57903 14.9266 2.31495C15.1714 2.74541 15.301 3.29966 15.2946 3.99211Z" fill="#F2B04E"/>
<path d="M1.34246 3.77038C1.34627 4.20043 1.40876 4.61867 1.5672 5.02269C1.71483 5.39946 2.25726 5.83974 2.79027 5.74339C2.86759 5.72937 2.92087 5.76342 2.9419 5.82631C3.01081 6.03123 3.0725 6.23834 3.13259 6.44606C3.15182 6.51256 3.11977 6.55423 3.05367 6.58527C2.60839 6.79379 2.1511 6.81262 1.68979 6.65979C1.13294 6.47551 0.684457 6.1422 0.419452 5.61099C-0.0618827 4.64551 -0.134794 3.64398 0.230964 2.62443C0.397218 2.16092 0.694873 1.79997 1.16559 1.61168C1.60126 1.43741 2.03452 1.46365 2.45556 1.66156C2.50724 1.68579 2.55591 1.76471 2.56393 1.824C2.58416 1.97504 2.58716 2.12947 2.58436 2.2823C2.58235 2.38546 2.50383 2.43013 2.38626 2.42973C2.23723 2.42933 2.0852 2.42272 1.93957 2.44756C1.695 2.48942 1.54157 2.64486 1.46525 2.88242C1.37231 3.17186 1.34186 3.46852 1.34246 3.77038Z" fill="#F2B04E"/>
</svg>
